<svg xmlns="http://www.w3.org/2000/svg" width="105" height="53" viewBox="0 17 105 53" fill="none">
  <g clip-path="url(#clip0_2201_2168)">
    <path d="M2.80498 68.9721C2.95333 68.9721 3.07179 69.0902 3.07179 69.238V69.6379C3.07179 69.7857 2.95333 69.9038 2.80498 69.9038H0.266812C0.118455 69.9038 0 69.7857 0 69.6379V64.9946C0 64.8468 0.118455 64.7288 0.266812 64.7288H2.73712C2.87858 64.7288 2.99704 64.8468 2.99704 64.9946V65.3945C2.99704 65.5424 2.87858 65.6604 2.73712 65.6604H1.0086V66.8212H2.56692C2.70837 66.8212 2.82683 66.9393 2.82683 67.0871V67.4939C2.82683 67.6337 2.70837 67.7529 2.56692 67.7529H1.0086V68.9733H2.80383L2.80498 68.9721Z" fill="#FF5A0A"></path>
    <path d="M6.55492 68.9721C6.70328 68.9721 6.81483 69.0902 6.81483 69.238V69.6379C6.81483 69.7857 6.70328 69.9038 6.55492 69.9038H4.06851C3.92705 69.9038 3.80859 69.7857 3.80859 69.6379V64.9946C3.80859 64.8468 3.92705 64.7288 4.06851 64.7288H4.55038C4.69873 64.7288 4.81719 64.8468 4.81719 64.9946V68.9733H6.55377L6.55492 68.9721Z" fill="#FF5A0A"></path>
    <path d="M11.088 64.7276H11.5711C11.7194 64.7276 11.8379 64.8456 11.8379 64.9935V69.6367C11.8379 69.7846 11.7194 69.9026 11.5711 69.9026H11.088C10.9466 69.9026 10.8281 69.7846 10.8281 69.6367V64.9935C10.8281 64.8456 10.9466 64.7276 11.088 64.7276Z" fill="#FF5A0A"></path>
    <path d="M16.2758 64.7276H16.7508C16.8991 64.7276 17.0176 64.8456 17.0176 64.9934V69.6367C17.0176 69.7845 16.8991 69.9026 16.7508 69.9026H16.3206C16.1872 69.9026 16.0607 69.8361 15.9871 69.725L13.8055 66.4786V69.6356C13.8055 69.7834 13.687 69.9014 13.5387 69.9014H13.0637C12.9153 69.9014 12.7969 69.7834 12.7969 69.6356V64.9923C12.7969 64.8445 12.9153 64.7264 13.0637 64.7264H13.5007C13.6272 64.7264 13.7526 64.7929 13.8273 64.9041L16.009 68.1505V64.9934C16.009 64.8456 16.1274 64.7276 16.2758 64.7276Z" fill="#FF5A0A"></path>
    <path d="M21.082 64.9935V65.3934C21.082 65.5412 20.9635 65.6592 20.8152 65.6592H19.8284V69.6379C19.8284 69.7857 19.7169 69.9037 19.5685 69.9037H19.0866C18.9452 69.9037 18.8267 69.7857 18.8267 69.6379V65.6592H17.84C17.6985 65.6592 17.5801 65.5412 17.5801 65.3934V64.9935C17.5801 64.8456 17.6997 64.7276 17.84 64.7276H20.8152C20.9635 64.7276 21.082 64.8456 21.082 64.9935Z" fill="#FF5A0A"></path>
    <path d="M24.4495 68.9721C24.5979 68.9721 24.7163 69.0902 24.7163 69.238V69.6379C24.7163 69.7857 24.5979 69.9038 24.4495 69.9038H21.9113C21.763 69.9038 21.6445 69.7857 21.6445 69.6379V64.9946C21.6445 64.8468 21.763 64.7288 21.9113 64.7288H24.3828C24.5243 64.7288 24.6427 64.8468 24.6427 64.9946V65.3945C24.6427 65.5424 24.5243 65.6604 24.3828 65.6604H22.6543V66.8212H24.2126C24.3541 66.8212 24.4725 66.9393 24.4725 67.0871V67.4939C24.4725 67.6337 24.3541 67.7529 24.2126 67.7529H22.6543V68.9733H24.4495V68.9721Z" fill="#FF5A0A"></path>
    <path d="M29.4627 69.9038H28.8026C28.6841 69.9038 28.5725 69.8373 28.5139 69.733L27.549 68.0405H26.6727V69.6379C26.6727 69.7857 26.5542 69.9038 26.4058 69.9038H25.9309C25.7825 69.9038 25.6641 69.7857 25.6641 69.6379V64.9946C25.6641 64.8468 25.7825 64.7288 25.9309 64.7288H27.4673C28.6323 64.7288 29.396 65.4312 29.396 66.4144C29.396 67.0722 29.0475 67.5684 28.4828 67.8342L29.603 69.6528C29.6697 69.764 29.5949 69.9038 29.4615 69.9038M26.6715 67.1753H27.4662C27.978 67.1753 28.3713 66.9381 28.3713 66.4133C28.3713 65.9469 28.0228 65.6593 27.4662 65.6593H26.6715V67.1753Z" fill="#FF5A0A"></path>
    <path d="M34.0551 64.7276H34.5301C34.6784 64.7276 34.7969 64.8456 34.7969 64.9934V69.6367C34.7969 69.7845 34.6784 69.9026 34.5301 69.9026H34.0999C33.9665 69.9026 33.84 69.8361 33.7664 69.725L31.5848 66.4786V69.6356C31.5848 69.7834 31.4663 69.9014 31.318 69.9014H30.843C30.6946 69.9014 30.5762 69.7834 30.5762 69.6356V64.9923C30.5762 64.8445 30.6946 64.7264 30.843 64.7264H31.2812C31.4065 64.7264 31.533 64.7929 31.6078 64.9041L33.7894 68.1505V64.9934C33.7894 64.8456 33.9079 64.7276 34.0562 64.7276" fill="#FF5A0A"></path>
    <path d="M38.5667 68.9721C38.7151 68.9721 38.8335 69.0902 38.8335 69.238V69.6379C38.8335 69.7857 38.7151 69.9038 38.5667 69.9038H36.0285C35.8802 69.9038 35.7617 69.7857 35.7617 69.6379V64.9946C35.7617 64.8468 35.8802 64.7288 36.0285 64.7288H38.5C38.6414 64.7288 38.7599 64.8468 38.7599 64.9946V65.3945C38.7599 65.5424 38.6414 65.6604 38.5 65.6604H36.7715V66.8212H38.3298C38.4712 66.8212 38.5897 66.9393 38.5897 67.0871V67.4939C38.5897 67.6337 38.4712 67.7529 38.3298 67.7529H36.7715V68.9733H38.5667V68.9721Z" fill="#FF5A0A"></path>
    <path d="M42.9238 64.9935V65.3934C42.9238 65.5412 42.8053 65.6592 42.657 65.6592H41.6702V69.6379C41.6702 69.7857 41.5587 69.9037 41.4103 69.9037H40.9284C40.787 69.9037 40.6685 69.7857 40.6685 69.6379V65.6592H39.6818C39.5403 65.6592 39.4219 65.5412 39.4219 65.3934V64.9935C39.4219 64.8456 39.5415 64.7276 39.6818 64.7276H42.657C42.8053 64.7276 42.9238 64.8456 42.9238 64.9935Z" fill="#FF5A0A"></path>
    <path d="M50.7943 67.3163C50.7943 68.8392 49.7627 69.9038 48.0261 69.9038H46.6759C46.5345 69.9038 46.416 69.7857 46.416 69.6379V64.9946C46.416 64.8468 46.5345 64.7288 46.6759 64.7288H48.0261C49.7627 64.7288 50.7943 65.7933 50.7943 67.3163ZM49.7845 67.3163C49.7845 66.1635 48.976 65.6604 48.0261 65.6604H47.4246V68.9733H48.0261C48.976 68.9733 49.7845 68.4702 49.7845 67.3174" fill="#FF5A0A"></path>
    <path d="M54.1272 68.9721C54.2756 68.9721 54.3941 69.0902 54.3941 69.238V69.6379C54.3941 69.7857 54.2756 69.9038 54.1272 69.9038H51.5891C51.4407 69.9038 51.3223 69.7857 51.3223 69.6379V64.9946C51.3223 64.8468 51.4407 64.7288 51.5891 64.7288H54.0605C54.202 64.7288 54.3204 64.8468 54.3204 64.9946V65.3945C54.3204 65.5424 54.202 65.6604 54.0605 65.6604H52.332V66.8212H53.8903C54.0318 66.8212 54.1502 66.9393 54.1502 67.0871V67.4939C54.1502 67.6337 54.0318 67.7529 53.8903 67.7529H52.332V68.9733H54.1272V68.9721Z" fill="#FF5A0A"></path>
    <path d="M61.0979 68.9721C61.2462 68.9721 61.3578 69.0902 61.3578 69.238V69.6379C61.3578 69.7857 61.2462 69.9038 61.0979 69.9038H58.6115C58.4712 69.9038 58.3516 69.7857 58.3516 69.6379V64.9946C58.3516 64.8468 58.47 64.7288 58.6115 64.7288H59.0945C59.2428 64.7288 59.3613 64.8468 59.3613 64.9946V68.9733H61.0979V68.9721Z" fill="#FF5A0A"></path>
    <path d="M66.6427 67.3162C66.6427 68.8323 65.5375 70 64.001 70C62.4646 70 61.3594 68.8323 61.3594 67.3162C61.3594 65.8002 62.4646 64.6405 64.001 64.6405C65.5375 64.6405 66.6427 65.8013 66.6427 67.3162ZM65.6341 67.3162C65.6341 66.4591 65.0775 65.5939 64.0022 65.5939C62.9269 65.5939 62.3691 66.4591 62.3691 67.3162C62.3691 68.1734 62.9257 69.0466 64.0022 69.0466C65.0786 69.0466 65.6341 68.1826 65.6341 67.3162Z" fill="#FF5A0A"></path>
    <path d="M70.8222 68.3957C70.8222 69.2082 70.2506 69.992 68.8855 69.992C68.0322 69.992 67.2536 69.6895 66.912 69.0306C66.8373 68.8827 66.912 68.7051 67.0673 68.6616L67.5354 68.5137C67.6538 68.4771 67.7803 68.5218 67.839 68.6249C67.9873 68.8759 68.299 69.1199 68.8775 69.1199C69.3973 69.1199 69.8125 68.9206 69.8125 68.4691C69.8125 67.9591 69.2259 67.9224 68.4025 67.715C67.356 67.4561 67.0075 66.9381 67.0075 66.2219C67.0075 65.2456 67.7573 64.6313 68.8407 64.6313C69.5905 64.6313 70.2058 64.9568 70.5025 65.5561C70.5772 65.7039 70.4875 65.8816 70.3242 65.9251L69.8573 66.0363C69.7458 66.066 69.6273 66.0145 69.5675 65.9102C69.449 65.6959 69.196 65.5114 68.7889 65.5114C68.3818 65.5114 68.0023 65.7326 68.0023 66.1543C68.0023 66.7307 68.6624 66.8189 69.1443 66.9301C70.376 67.2108 70.8211 67.5661 70.8211 68.3946" fill="#FF5A0A"></path>
    <path d="M79.9789 64.7276H80.5275C80.6609 64.7276 80.7575 64.8605 80.7207 64.9866L79.1992 69.6746C79.1624 69.8075 79.029 69.9037 78.8875 69.9037H78.4723C78.324 69.9037 78.1975 69.8075 78.1538 69.6677L77.2188 66.5026L76.2769 69.6677C76.2401 69.8075 76.1136 69.9037 75.9652 69.9037H75.5501C75.4017 69.9037 75.2752 69.8075 75.2303 69.6746L73.7169 64.9866C73.6801 64.8605 73.7767 64.7276 73.9101 64.7276H74.4587C74.6001 64.7276 74.7335 64.8239 74.7703 64.9568L75.787 68.2765L76.7588 64.9637C76.8025 64.8239 76.929 64.7276 77.0773 64.7276H77.3591C77.5005 64.7276 77.634 64.8239 77.6708 64.9637L78.6506 68.2765L79.6592 64.9568C79.704 64.8239 79.8306 64.7276 79.9789 64.7276Z" fill="#FF5A0A"></path>
    <path d="M81.4279 64.7276H81.9097C82.0581 64.7276 82.1766 64.8456 82.1766 64.9935V69.6367C82.1766 69.7846 82.0581 69.9026 81.9097 69.9026H81.4279C81.2864 69.9026 81.168 69.7846 81.168 69.6367V64.9935C81.168 64.8456 81.2864 64.7276 81.4279 64.7276Z" fill="#FF5A0A"></path>
    <path d="M86.4145 64.7276H86.8894C87.0378 64.7276 87.1562 64.8456 87.1562 64.9934V69.6367C87.1562 69.7845 87.0378 69.9026 86.8894 69.9026H86.4593C86.3259 69.9026 86.1994 69.8361 86.1258 69.725L83.9441 66.4786V69.6356C83.9441 69.7834 83.8257 69.9014 83.6773 69.9014H83.2024C83.054 69.9014 82.9355 69.7834 82.9355 69.6356V64.9923C82.9355 64.8445 83.054 64.7264 83.2024 64.7264H83.6405C83.7659 64.7264 83.8924 64.7929 83.9671 64.9041L86.1488 68.1505V64.9934C86.1488 64.8456 86.2672 64.7276 86.4156 64.7276" fill="#FF5A0A"></path>
    <path d="M91.4008 64.7276H91.8758C92.0241 64.7276 92.1426 64.8456 92.1426 64.9934V69.6367C92.1426 69.7845 92.0241 69.9026 91.8758 69.9026H91.4456C91.3122 69.9026 91.1857 69.8361 91.1121 69.725L88.9305 66.4786V69.6356C88.9305 69.7834 88.812 69.9014 88.6637 69.9014H88.1887C88.0403 69.9014 87.9219 69.7834 87.9219 69.6356V64.9923C87.9219 64.8445 88.0403 64.7264 88.1887 64.7264H88.6269C88.7522 64.7264 88.8787 64.7929 88.9535 64.9041L91.1351 68.1505V64.9934C91.1351 64.8456 91.2536 64.7276 91.4019 64.7276" fill="#FF5A0A"></path>
    <path d="M95.714 68.9721C95.8623 68.9721 95.9808 69.0902 95.9808 69.238V69.6379C95.9808 69.7857 95.8623 69.9038 95.714 69.9038H93.177C93.0286 69.9038 92.9102 69.7857 92.9102 69.6379V64.9946C92.9102 64.8468 93.0286 64.7288 93.177 64.7288H95.6473C95.7887 64.7288 95.9072 64.8468 95.9072 64.9946V65.3945C95.9072 65.5424 95.7887 65.6604 95.6473 65.6604H93.9188V66.8212H95.4771C95.6174 66.8212 95.737 66.9393 95.737 67.0871V67.4939C95.737 67.6337 95.6185 67.7529 95.4771 67.7529H93.9188V68.9733H95.714V68.9721Z" fill="#FF5A0A"></path>
    <path d="M100.388 69.9038H99.7283C99.6099 69.9038 99.4983 69.8373 99.4385 69.733L98.4736 68.0405H97.5984V69.6379C97.5984 69.7857 97.48 69.9038 97.3316 69.9038H96.8567C96.7083 69.9038 96.5898 69.7857 96.5898 69.6379V64.9946C96.5898 64.8468 96.7083 64.7288 96.8567 64.7288H98.3931C99.5581 64.7288 100.322 65.4312 100.322 66.4144C100.322 67.0722 99.9721 67.5684 99.4086 67.8342L100.529 69.6528C100.595 69.764 100.521 69.9038 100.387 69.9038M97.5973 67.1753H98.392C98.9037 67.1753 99.2971 66.9381 99.2971 66.4133C99.2971 65.9469 98.9486 65.6593 98.392 65.6593H97.5973V67.1753Z" fill="#FF5A0A"></path>
    <path d="M104.735 68.3957C104.735 69.2082 104.164 69.992 102.799 69.992C101.945 69.992 101.166 69.6895 100.824 69.0306C100.749 68.8827 100.824 68.7051 100.981 68.6616L101.449 68.5137C101.567 68.4771 101.694 68.5218 101.752 68.6249C101.901 68.8759 102.212 69.1199 102.791 69.1199C103.311 69.1199 103.726 68.9206 103.726 68.4691C103.726 67.9591 103.139 67.9224 102.316 67.715C101.269 67.4561 100.921 66.9381 100.921 66.2219C100.921 65.2456 101.671 64.6313 102.754 64.6313C103.504 64.6313 104.119 64.9568 104.416 65.5561C104.49 65.7039 104.401 65.8816 104.237 65.9251L103.769 66.0363C103.658 66.066 103.539 66.0145 103.48 65.9102C103.361 65.6959 103.108 65.5114 102.701 65.5114C102.294 65.5114 101.914 65.7326 101.914 66.1543C101.914 66.7307 102.574 66.8189 103.056 66.9301C104.288 67.2108 104.733 67.5661 104.733 68.3946" fill="#FF5A0A"></path>
    <path d="M63.9672 28.8212C61.8385 28.8212 60.0996 30.555 60.0996 32.6749V55.8043C60.0996 57.9231 61.8396 59.658 63.9672 59.658H64.0339C66.1615 59.658 67.9004 57.9231 67.9004 55.8043V32.6749C67.9004 30.555 66.1604 28.8212 64.0339 28.8212H63.9672Z" fill="#FF5A0A"></path>
    <path d="M73.7093 44.1548C73.7093 44.188 73.707 44.219 73.707 44.251V56.0094C73.707 58.1293 75.4482 59.8643 77.5747 59.8643H77.6414C79.7678 59.8643 81.509 58.1293 81.509 56.0094C81.509 56.0094 81.5055 43.9302 81.5055 43.7571C81.6481 40.1337 83.8206 36.657 89.2362 36.657C94.6518 36.657 96.8484 40.1761 96.9645 43.8248C96.9645 43.9863 96.9657 56.0094 96.9657 56.0094C96.9657 58.1293 98.7069 59.8643 100.834 59.8643H100.901C103.029 59.8643 104.769 58.1293 104.769 56.0094V44.2086C104.742 39.0084 101.687 28.8968 89.2028 28.8555C76.7604 28.8956 73.7565 38.9385 73.7093 44.1548Z" fill="#FF5A0A"></path>
    <path d="M50.3533 28.9553C48.2268 28.9553 46.4868 30.689 46.4868 32.809V52.2084H38.8562V52.2049H38.8551C33.3038 52.2049 31.0715 48.507 31.0577 44.7656V32.809C31.0577 30.689 29.2786 28.9553 27.151 28.9553C25.0234 28.9553 23.2569 30.689 23.2569 32.809V45.1839C23.0867 48.7786 20.8901 52.2049 15.5458 52.2049C10.2015 52.2049 7.83932 48.507 7.82437 44.7656C7.82552 44.7232 7.82667 32.809 7.82667 32.809C7.82667 30.689 6.05559 28.9553 3.92799 28.9553C1.8004 28.9553 0.0235653 30.689 0.0235653 32.809V44.6407C0.0235653 44.9719 0.0189651 45.279 0.0649672 45.6021C0.429534 50.9891 3.81529 59.9686 15.5102 60.0053C21.0799 59.9881 24.7612 57.9403 27.1303 55.2187C27.1303 55.2187 27.1429 55.2004 27.1809 55.2004C27.2154 55.2004 27.2223 55.213 27.2257 55.2187C29.5788 57.9414 33.2463 59.9892 38.8171 60.0053H38.8528V59.9823H50.4234C52.5499 59.9823 54.2911 58.2474 54.2911 56.1286V56.0621C54.2911 55.998 54.2888 55.9315 54.2865 55.8685V32.809C54.2865 30.689 52.5453 28.9553 50.4177 28.9553H50.351H50.3533Z" fill="#FF5A0A"></path>
    <path d="M60.2461 21.0461C60.2461 21.8184 60.4163 22.5048 60.797 23.0526V23.0572C61.2696 23.7757 63.648 26.1122 63.9033 26.3666C64.0742 26.537 64.2471 26.537 64.4219 26.3666C64.6956 26.0561 67.235 23.5305 67.5708 22.9678L67.5731 22.938C67.9008 22.4097 68.0469 21.7646 68.0469 21.0449C68.0469 18.8975 66.3011 17.158 64.1471 17.158C61.993 17.158 60.2461 18.8975 60.2461 21.0449" fill="#FF5A0A"></path>
  </g>
</svg>